<?xml version="1.0" encoding="UTF-8" standalone="no"?>
<!-- Created with Inkscape (http://www.inkscape.org/) -->

<svg
   width="16"
   height="16"
   viewBox="0 0 4.2333328 4.2333328"
   version="1.1"
   id="svg1"
   xmlns="http://www.w3.org/2000/svg"
   xmlns:svg="http://www.w3.org/2000/svg">
  <defs
     id="defs1" />
  <g
     id="shape"
     transform="translate(-45.768211,-56.289474)">
    <circle
       id="path7"
       cx="46.160233"
       cy="57.038464"
       r="0.3920227"
       transform="translate(1.3187911e-6)" />
    <circle
       id="path7-3"
       cx="46.160233"
       cy="58.406143"
       r="0.3920227"
       transform="translate(1.3187911e-6)" />
    <circle
       id="path7-3-6"
       cx="46.160233"
       cy="59.773808"
       r="0.3920227"
       transform="translate(1.3187911e-6)" />
    <path
       id="path11"
       d="m 47.198858,56.777618 c -0.144057,0 -0.260838,0.116782 -0.260838,0.260838 0,0.144057 0.116781,0.260838 0.260838,0.260838 h 2.541849 c 0.144056,0 0.260837,-0.116781 0.260837,-0.260838 0,-0.144056 -0.116781,-0.260838 -0.260837,-0.260838 z"
       transform="translate(1.3187911e-6)" />
    <path
       id="path11-2"
       d="m 47.198858,58.145302 c -0.144057,0 -0.260838,0.116781 -0.260838,0.260837 0,0.144057 0.116781,0.260838 0.260838,0.260838 h 0.895736 c 0.144056,0 0.260837,-0.116781 0.260837,-0.260838 0,-0.144056 -0.116781,-0.260837 -0.260837,-0.260837 z"
       transform="translate(1.3187911e-6)" />
    <path
       id="path11-80"
       d="m 47.198858,59.512968 c -0.144057,0 -0.260838,0.116781 -0.260838,0.260837 0,0.144057 0.116781,0.260838 0.260838,0.260838 h 1.744578 c 0.144056,0 0.260837,-0.116781 0.260837,-0.260838 0,-0.144056 -0.116781,-0.260837 -0.260837,-0.260837 z"
       transform="translate(1.3187911e-6)" />
  </g>
</svg>
